<?xml version="1.0" encoding="iso-8859-1"?>
<!-- Uploaded to: SVG Repo, www.svgrepo.com, Generator: SVG Repo Mixer Tools -->
<svg fill="#000000" height="800px" width="800px" version="1.1" id="Layer_1" xmlns="http://www.w3.org/2000/svg" xmlns:xlink="http://www.w3.org/1999/xlink" 
	 viewBox="0 0 512.001 512.001" xml:space="preserve">
<g>
	<g>
		<path d="M10.585,469.75h-0.137C4.678,469.75,0,474.428,0,480.198s4.678,10.448,10.448,10.448h0.137
			c5.769,0,10.448-4.677,10.448-10.448S16.354,469.75,10.585,469.75z"/>
	</g>
</g>
<g>
	<g>
		<path d="M294.071,190.79c-6.439,0-11.678,5.238-11.678,11.678c0,6.439,5.24,11.677,11.678,11.677s11.676-5.24,11.677-11.677
			C305.748,196.028,300.51,190.79,294.071,190.79z"/>
	</g>
</g>
<g>
	<g>
		<path d="M217.865,190.79c-6.439,0-11.677,5.238-11.677,11.678c0,6.439,5.238,11.677,11.677,11.677s11.678-5.24,11.678-11.677
			C229.544,196.028,224.304,190.79,217.865,190.79z"/>
	</g>
</g>
<g>
	<g>
		<path d="M266.221,240.014h-20.419c-5.769,0-10.448,4.677-10.448,10.448c0,11.39,9.267,20.657,20.657,20.657
			c11.39,0,20.656-9.267,20.657-20.657C276.669,244.692,271.991,240.014,266.221,240.014z"/>
	</g>
</g>
<g>
	<g>
		<path d="M501.489,469.742h-0.137c-5.769,0-10.448,4.677-10.448,10.448s4.678,10.448,10.448,10.448h0.137
			c5.769,0,10.448-4.677,10.448-10.448S507.258,469.742,501.489,469.742z"/>
	</g>
</g>
<g>
	<g>
		<path d="M284.01,424.818h-0.137c-5.769,0-10.448,4.677-10.448,10.448s4.678,10.448,10.448,10.448h0.137
			c5.769,0,10.448-4.677,10.448-10.448S289.779,424.818,284.01,424.818z"/>
	</g>
</g>
<g>
	<g>
		<path d="M357.007,424.817h-39.198c-5.769,0-10.448,4.677-10.448,10.448s4.678,10.448,10.448,10.448h39.198
			c5.769,0,10.448-4.677,10.448-10.448S362.776,424.817,357.007,424.817z"/>
	</g>
</g>
<g>
	<g>
		<path d="M221.469,415.723c-3.825-3.825-8.591-6.366-13.776-7.408c0.445-9.168-2.826-18.484-9.813-25.471
			c-13.139-13.138-34.516-13.138-47.655,0c-13.138,13.139-13.138,34.517,0,47.655c6.569,6.569,15.198,9.853,23.828,9.853
			c0.547,0,1.096-0.014,1.643-0.041c1.044,5.185,3.584,9.951,7.408,13.776c5.124,5.124,11.936,7.945,19.182,7.945
			c7.245,0,14.058-2.822,19.181-7.945c0,0,0,0,0.001,0c5.124-5.124,7.945-11.936,7.945-19.182
			C229.414,427.659,226.592,420.846,221.469,415.723z M183.105,415.723c-4.992,4.992-13.113,4.992-18.104,0
			c-4.991-4.991-4.991-13.113,0-18.104c2.496-2.496,5.773-3.743,9.052-3.743s6.556,1.247,9.052,3.743
			C188.096,402.61,188.096,410.732,183.105,415.723z M206.695,439.313h-0.001c-1.177,1.176-2.741,1.825-4.407,1.825
			c-1.665,0-3.229-0.649-4.408-1.826c-1.176-1.177-1.825-2.742-1.825-4.407c0-1.663,0.648-3.226,1.823-4.404
			c0.001-0.001,0.002-0.002,0.003-0.003c0.001-0.001,0.002-0.002,0.003-0.003c1.177-1.174,2.74-1.822,4.404-1.822
			c1.665,0,3.229,0.649,4.408,1.826c1.176,1.177,1.825,2.743,1.825,4.407C208.52,436.571,207.871,438.136,206.695,439.313z"/>
	</g>
</g>
<g>
	<g>
		<path d="M99.385,188.332c-0.001-11.975-6.237-21.537-12.84-31.66c-6.163-9.45-13.149-20.16-16.174-34.853
			c-0.688-3.34-2.963-6.135-6.094-7.486c-3.13-1.352-6.725-1.089-9.626,0.701c-31.876,19.672-43.187,51.78-43.187,73.298
			c-0.001,11.742,4.572,22.782,12.876,31.085c2.701,2.701,5.695,4.999,8.906,6.882l-8.07,129.929
			c-0.014,0.216-0.021,0.433-0.021,0.648c0,16.69,13.579,30.269,30.27,30.269c16.69,0,30.269-13.579,30.269-30.269
			c0-0.216-0.007-0.432-0.021-0.648l-8.071-129.964C90.619,218.624,99.384,204.486,99.385,188.332z M55.424,366.248
			c-5.081,0-9.231-4.062-9.371-9.109l7.756-124.885c0.537,0.02,1.074,0.04,1.614,0.04c0.541,0,1.077-0.022,1.614-0.041
			l7.755,124.887C64.652,362.186,60.505,366.248,55.424,366.248z M55.424,211.397c-6.161,0-11.953-2.399-16.31-6.755
			s-6.755-10.149-6.755-16.309c0-10.91,4.939-31.211,22.063-47.034c4.241,10.873,9.841,19.459,14.62,26.789
			c5.278,8.092,9.447,14.482,9.447,20.244C78.488,201.05,68.142,211.397,55.424,211.397z"/>
	</g>
</g>
<g>
	<g>
		<path d="M468.789,469.734h-59.202V399.1c0-20.366-12.291-39.708-29.887-47.041l-67.239-28.016
			c-2.39-0.996-3.936-3.313-3.936-5.904v-14.516v-1.753l27.31-15.659c0.19-0.109,0.377-0.225,0.56-0.346
			c13.674-9.031,22.653-25.09,24.018-42.96c0.021-0.264,0.03-0.531,0.03-0.796v-8.674c13.567-4.413,23.402-17.18,23.402-32.201
			s-9.834-27.788-23.402-32.201v-10.051c8.191-3.392,14.562-8.718,18.662-15.818c7.862-13.617,5.968-31.183-5.336-49.462
			c-5.594-9.046-13.245-17.823-22.413-25.85c3.831-7.183,5.137-15.281,3.666-22.946c-1.63-8.493-6.651-15.725-13.778-19.838
			c-7.127-4.115-15.9-4.849-24.069-2.013c-7.367,2.557-13.723,7.73-18.027,14.63c-11.57-3.948-23.031-6.195-33.692-6.518
			c-20.288-0.603-35.806,5.724-44.095,17.888c-40.691,14.393-68.275,52.41-69.464,95.435c-0.265,0.92-0.407,1.893-0.407,2.898
			v21.644c-13.567,4.413-23.402,17.18-23.402,32.201s9.834,27.788,23.402,32.201v8.674c0,0.265,0.01,0.532,0.03,0.796
			c1.372,17.943,10.288,34.002,23.85,42.96c0.187,0.123,0.377,0.24,0.573,0.352l27.466,15.702v16.22c0,2.59-1.545,4.907-3.936,5.904
			l-67.239,28.016c-17.597,7.332-29.887,26.676-29.887,47.04v70.635H44.384c-5.769,0-10.448,4.677-10.448,10.448
			s4.678,10.455,10.448,10.455h424.406c5.769,0,10.448-4.687,10.448-10.457S474.56,469.734,468.789,469.734z M324.027,42.8
			c1.43-0.496,4.215-1.109,6.771,0.369c2.559,1.477,3.419,4.193,3.705,5.68c0.368,1.913,0.246,3.995-0.32,6.029
			c-2.45-1.597-4.963-3.143-7.534-4.626c-2.54-1.467-5.103-2.855-7.68-4.164C320.449,44.582,322.189,43.437,324.027,42.8z
			 M238.049,61.729c3.598-6.233,12.641-9.754,24.854-9.754c14.55,0,33.603,5.001,53.3,16.373
			c17.37,10.029,31.503,22.938,39.796,36.349c6.966,11.264,8.793,21.478,5.013,28.025c-3.78,6.548-13.534,10.068-26.776,9.671
			c-15.761-0.476-34.007-6.262-51.378-16.29C246.627,105.184,230.163,75.387,238.049,61.729z M172.753,147.392
			c0.001-30.578,16.695-58.277,42.725-72.82c0.951,8.29,4.228,17.143,9.811,26.171c7.175,11.602,17.737,22.759,30.547,32.46
			c-33.583,17.009-67.637,16.241-83.115,14.68C172.728,147.719,172.753,147.56,172.753,147.392z M186.631,268.258
			c-7.984-5.406-13.283-15.291-14.244-26.568v-17.052c0-5.77-4.678-10.448-10.448-10.448c-7.143,0-12.954-5.812-12.954-12.954
			s5.812-12.954,12.954-12.954c5.769,0,10.448-4.677,10.448-10.448V168.9c4.455,0.417,9.929,0.742,16.188,0.742
			c22.6,0,55.402-4.237,87.128-23.601c19.35,10.587,39.779,16.69,57.901,17.238c0.898,0.027,1.786,0.041,2.667,0.041
			c1.111,0,2.199-0.03,3.28-0.073v14.589c0,5.77,4.678,10.448,10.448,10.448c7.143,0,12.954,5.812,12.954,12.954
			s-5.812,12.954-12.954,12.954c-5.769,0-10.448,4.677-10.448,10.448v17.05c-0.949,11.047-6.442,21.173-14.418,26.574
			l-56.094,32.163c-0.19,0.11-0.377,0.225-0.56,0.346c-7.834,5.173-17.183,5.173-25.017,0c-0.187-0.123-0.377-0.241-0.573-0.352
			L186.631,268.258z M287.631,313.853v41.817c0,17.379-14.181,31.518-31.612,31.518c-17.486,0-31.713-14.139-31.713-31.518v-41.804
			l7.939,4.538c7.333,4.763,15.528,7.144,23.725,7.144c8.198,0,16.396-2.383,23.731-7.148L287.631,313.853z M388.693,469.734h-0.001
			l-265.448,0.001V399.1c0-11.776,7.321-23.707,17.029-27.752l63.138-26.307v10.628c0,28.9,23.6,52.413,52.608,52.413
			c28.953,0,52.507-23.513,52.507-52.413v-10.628l63.139,26.307c9.707,4.044,17.028,15.976,17.028,27.752V469.734z"/>
	</g>
</g>
<g>
	<g>
		<path d="M496.485,295.874c-4.38-4.719-6.509-7.194-7.068-11.847c-0.202-1.681,1.41-3.412,6.358-7.762
			c7.741-6.805,20.699-18.196,14.677-40.493c-4.762-17.63-20.862-32.731-42.018-39.408c-24.923-7.866-51.677-2.653-71.565,13.949
			c-19.902,16.614-32.339,39.2-35.019,63.597c-2.74,24.952,5.035,49.796,21.892,69.956c20.023,23.945,44.104,29.787,60.778,30.473
			c1.162,0.048,2.324,0.071,3.484,0.071c17.674,0,35.142-5.467,46.26-14.607c16.894-13.888,21.724-31.707,13.252-48.887
			C504.199,304.186,499.921,299.576,496.485,295.874z M480.995,343.663c-12.241,10.062-52.996,20.556-81.222-13.2
			c-13.172-15.754-19.265-35.028-17.151-54.27c2.086-19.003,11.902-36.703,27.637-49.838c11.949-9.974,24.463-12.706,34.589-12.706
			c7.452,0,13.611,1.48,17.295,2.645c14.213,4.485,25.256,14.27,28.135,24.928c2.524,9.349-0.72,12.689-8.3,19.352
			c-6.271,5.511-14.858,13.062-13.308,25.95c1.395,11.599,7.552,18.233,12.498,23.564c3.025,3.261,5.638,6.076,7.608,10.072
			C491.572,325.826,493.212,333.619,480.995,343.663z"/>
	</g>
</g>
<g>
	<g>
		<path d="M471.504,303.437c-9.906-11.231-27.105-12.31-38.34-2.402c-11.232,9.908-12.309,27.107-2.402,38.341
			c5.362,6.078,12.857,9.182,20.388,9.182c6.387,0,12.798-2.234,17.952-6.781C480.334,331.868,481.412,314.669,471.504,303.437z
			 M457.391,321.799c-0.105,1.672-0.855,3.201-2.11,4.31c-2.592,2.287-6.561,2.036-8.847-0.554
			c-2.287-2.593-2.038-6.562,0.554-8.848c1.19-1.05,2.669-1.565,4.142-1.565c1.739,0,3.468,0.717,4.707,2.119
			C456.943,318.516,457.497,320.128,457.391,321.799z"/>
	</g>
</g>
<g>
	<g>
		<path d="M431.094,265.617c-4.8-5.441-11.431-8.688-18.673-9.142c-7.23-0.449-14.225,1.94-19.667,6.739
			c-11.232,9.909-12.31,27.109-2.403,38.34c4.8,5.441,11.431,8.687,18.673,9.142c0.581,0.037,1.159,0.054,1.735,0.054
			c6.615,0,12.927-2.379,17.932-6.793C439.925,294.049,441.001,276.849,431.094,265.617z M414.87,288.288
			c-1.255,1.106-2.861,1.655-4.54,1.555c-1.671-0.105-3.2-0.855-4.309-2.11c-2.287-2.592-2.037-6.561,0.555-8.848
			c1.155-1.019,2.611-1.567,4.137-1.567c0.133,0,0.266,0.004,0.401,0.014c1.671,0.104,3.2,0.854,4.309,2.109
			C417.711,282.032,417.461,286.002,414.87,288.288z"/>
	</g>
</g>
<g>
	<g>
		<path d="M474.42,227.4c-4.8-5.441-11.431-8.687-18.673-9.142c-7.245-0.45-14.227,1.94-19.667,6.74
			c-5.441,4.8-8.687,11.431-9.142,18.673c-0.454,7.241,1.939,14.227,6.739,19.668c4.8,5.441,11.431,8.688,18.673,9.142
			c0.581,0.036,1.159,0.054,1.735,0.054c6.615,0,12.927-2.379,17.932-6.796c5.44-4.8,8.686-11.431,9.141-18.672
			C481.613,239.825,479.219,232.841,474.42,227.4z M460.304,245.763c-0.105,1.671-0.855,3.201-2.11,4.309h-0.001
			c-1.254,1.107-2.859,1.663-4.537,1.555c-1.671-0.104-3.2-0.854-4.309-2.109c-1.106-1.256-1.66-2.868-1.555-4.538
			c0.105-1.672,0.855-3.201,2.11-4.31c1.155-1.019,2.611-1.567,4.137-1.567c0.133,0,0.266,0.004,0.401,0.013
			c1.671,0.106,3.2,0.855,4.309,2.11C459.856,242.48,460.409,244.091,460.304,245.763z"/>
	</g>
</g>
</svg>